# xmcd
# Copyright (C) 1995-1998 Ti Kan
#
# Track frame offsets:
#       150
#       12867
#       30111
#       43263
#       61109
#       71874
#       82941
#       96402
#       105501
#       119627
#       129678
#       147595
#
# Disc length: 2110 seconds
#
# Revision: 0
# Processed by: cddbd v1.5.2PL0 Copyright (c) Steve Scherf et al.
# Submitted via: CD-Import v1.0
#
DISCID=a5083c0c
DTITLE=Clarence Reid - Dancin' With Nobody Else
DYEAR=1969
DGENRE=
TTITLE0=Nobody But You Babe
TTITLE1=Twenty Five Miles
TTITLE2=Doggone It
TTITLE3=Get Back
TTITLE4=Don't Look Too Hard
TTITLE5=I've Been Trying
TTITLE6=Tear You A New Heart
TTITLE7=Part Time Lover
TTITLE8=Shop Around
TTITLE9=Fools Are Not Born
TTITLE10=Polk Salad Annie
TTITLE11=Send Me Back My Money
EXTD=
EXTT0=
EXTT1=
EXTT2=
EXTT3=
EXTT4=
EXTT5=
EXTT6=
EXTT7=
EXTT8=
EXTT9=
EXTT10=
EXTT11=
PLAYORDER=
